<svg width="315" height="384" viewBox="0 0 315 384" fill="none" xmlns="http://www.w3.org/2000/svg">
<path d="M311.818 371.247V368.926H306.758L306.395 373.843C307.37 373.029 308.503 372.622 309.794 372.622C310.828 372.622 311.727 372.871 312.489 373.37C313.26 373.862 313.846 374.522 314.25 375.35C314.66 376.172 314.866 377.081 314.866 378.079C314.866 379.186 314.635 380.165 314.173 381.016C313.718 381.867 313.058 382.527 312.192 382.996C311.327 383.458 310.319 383.689 309.167 383.689C307.48 383.689 306.153 383.212 305.185 382.259C304.217 381.298 303.681 379.92 303.579 378.123H305.713C305.852 379.259 306.223 380.151 306.824 380.796C307.425 381.441 308.214 381.764 309.189 381.764C310.165 381.764 310.96 381.43 311.576 380.763C312.192 380.096 312.5 379.215 312.5 378.123C312.5 376.993 312.211 376.124 311.631 375.515C311.052 374.907 310.311 374.602 309.409 374.602C308.089 374.602 306.985 375.273 306.098 376.616C305.606 376.131 305.031 375.717 304.371 375.372L305.042 366.858H313.876V371.247H311.818Z" fill="#242B3D"/>
<path d="M301.059 371.07C301.059 372.002 300.821 372.816 300.344 373.513C299.875 374.209 299.039 375.001 297.836 375.889L296.78 376.681C295.907 377.341 295.232 377.876 294.756 378.287C294.286 378.698 293.883 379.153 293.546 379.651C293.208 380.15 292.977 380.707 292.852 381.323H299.09L299.189 377.484H301.191L301.059 383.414H290.443C290.458 382.064 290.689 380.894 291.136 379.904C291.591 378.907 292.13 378.085 292.753 377.44C293.377 376.795 294.125 376.142 294.998 375.482L296.637 374.239C297.392 373.689 297.92 373.186 298.221 372.732C298.522 372.27 298.672 371.745 298.672 371.158C298.672 370.33 298.43 369.684 297.946 369.222C297.469 368.753 296.809 368.518 295.966 368.518C294.88 368.518 294.125 368.837 293.7 369.475C293.274 370.113 293.061 371.103 293.061 372.446V373.007H290.872V372.369C290.872 370.601 291.261 369.222 292.038 368.232C292.508 367.66 293.065 367.238 293.711 366.967C294.356 366.696 295.13 366.56 296.032 366.56C297.147 366.56 298.078 366.773 298.826 367.198C299.574 367.616 300.132 368.166 300.498 368.848C300.872 369.53 301.059 370.271 301.059 371.07Z" fill="#242B3D"/>
<path d="M288.595 375.141C288.595 376.945 288.361 378.489 287.891 379.772C287.429 381.056 286.769 382.031 285.911 382.699C285.06 383.359 284.048 383.689 282.875 383.689C281.012 383.689 279.585 382.919 278.595 381.378C277.605 379.838 277.11 377.759 277.11 375.141C277.11 373.329 277.341 371.782 277.803 370.498C278.273 369.208 278.94 368.228 279.805 367.561C280.678 366.894 281.701 366.56 282.875 366.56C284.708 366.56 286.12 367.326 287.11 368.859C288.1 370.392 288.595 372.486 288.595 375.141ZM282.875 381.741C283.96 381.741 284.782 381.228 285.339 380.201C285.904 379.175 286.186 377.458 286.186 375.053C286.186 372.669 285.896 370.982 285.317 369.992C284.738 368.995 283.916 368.496 282.853 368.496C281.709 368.496 280.869 369.054 280.333 370.168C279.805 371.276 279.541 372.933 279.541 375.141C279.541 377.458 279.82 379.138 280.377 380.179C280.935 381.221 281.767 381.741 282.875 381.741Z" fill="#242B3D"/>
<path d="M274.613 371.07C274.613 372.002 274.374 372.816 273.898 373.513C273.428 374.209 272.592 375.001 271.389 375.889L270.333 376.681C269.461 377.341 268.786 377.876 268.309 378.287C267.84 378.698 267.436 379.153 267.099 379.651C266.762 380.15 266.531 380.707 266.406 381.323H272.644L272.743 377.484H274.745L274.613 383.414H263.997C264.011 382.064 264.242 380.894 264.69 379.904C265.144 378.907 265.684 378.085 266.307 377.44C266.93 376.795 267.678 376.142 268.551 375.482L270.19 374.239C270.946 373.689 271.474 373.186 271.774 372.732C272.075 372.27 272.226 371.745 272.226 371.158C272.226 370.33 271.983 369.684 271.499 369.222C271.023 368.753 270.363 368.518 269.519 368.518C268.434 368.518 267.678 368.837 267.253 369.475C266.828 370.113 266.615 371.103 266.615 372.446V373.007H264.426V372.369C264.426 370.601 264.814 369.222 265.592 368.232C266.061 367.66 266.619 367.238 267.264 366.967C267.909 366.696 268.683 366.56 269.585 366.56C270.7 366.56 271.631 366.773 272.38 367.198C273.128 367.616 273.685 368.166 274.052 368.848C274.426 369.53 274.613 370.271 274.613 371.07Z" fill="#242B3D"/>
<path d="M255.79 374.877C255.79 377.715 254.932 379.849 253.216 381.279C251.507 382.702 248.962 383.414 245.581 383.414H239.387V381.345H241.609V368.903H239.387V366.835H245.691C249.087 366.835 251.617 367.477 253.282 368.76C254.954 370.044 255.79 372.082 255.79 374.877ZM253.062 374.987C253.062 373.579 252.812 372.431 252.313 371.543C251.822 370.656 251.037 369.996 249.959 369.563C248.888 369.123 247.473 368.903 245.713 368.903H244.118V381.345H245.691C248.243 381.345 250.11 380.836 251.29 379.816C252.471 378.789 253.062 377.18 253.062 374.987Z" fill="#242B3D"/>
<path d="M234.173 368.903H231.808V366.835H238.606V368.903H236.175V383.59H233.601L225.647 369.42V381.345H228.023V383.414H221.236V381.345H223.601V368.903H221.236V366.835H226.89L234.173 379.717V368.903Z" fill="#242B3D"/>
<path d="M214.03 368.837L218.518 381.345H220.366V383.414H213.832V381.345H215.999L214.712 377.583H208.694L207.407 381.345H209.508V383.414H202.93V381.345H204.932L209.398 368.837H207.407V366.835H216.021V368.837H214.03ZM211.764 368.837H211.687L209.343 375.636H214.052L211.764 368.837Z" fill="#242B3D"/>
<path d="M194.327 368.903V381.345H199.772V376.208H201.83V383.414H189.684V381.345H191.819V368.903H189.684V366.835H196.461V368.903H194.327Z" fill="#242B3D"/>
<path d="M178.903 368.903V381.345H180.817V383.414H174.327V381.345H176.395V368.903H174.327V366.835H181.037V368.903H178.903ZM187.143 368.903L182.006 374.668L187.286 381.345H189.057V383.414H182.325V381.345H184.151L179.167 374.745L184.305 368.903H182.391V366.835H188.903V368.903H187.143Z" fill="#242B3D"/>
<path d="M170.223 368.661V366.835H172.336V372.148H170.179C169.637 371.085 168.892 370.256 167.946 369.662C167 369.068 165.962 368.771 164.833 368.771C163.74 368.771 162.765 369.061 161.907 369.64C161.049 370.212 160.377 370.982 159.893 371.95C159.417 372.911 159.178 373.945 159.178 375.053C159.178 376.197 159.428 377.253 159.926 378.221C160.432 379.189 161.126 379.963 162.006 380.542C162.886 381.122 163.865 381.411 164.943 381.411C166.27 381.411 167.444 381.008 168.463 380.201C169.483 379.387 170.227 378.236 170.696 376.747L172.809 377.869C172.237 379.717 171.225 381.151 169.772 382.17C168.328 383.183 166.63 383.689 164.679 383.689C163.073 383.689 161.646 383.307 160.399 382.545C159.153 381.774 158.181 380.744 157.484 379.453C156.795 378.155 156.45 376.732 156.45 375.185C156.45 373.505 156.802 372.009 157.506 370.696C158.218 369.384 159.197 368.368 160.443 367.649C161.69 366.923 163.117 366.56 164.723 366.56C165.801 366.56 166.795 366.74 167.704 367.099C168.614 367.458 169.453 367.979 170.223 368.661Z" fill="#242B3D"/>
<path d="M143.524 368.903V377.352C143.524 378.841 143.806 379.93 144.371 380.619C144.943 381.309 145.779 381.653 146.879 381.653C147.994 381.653 148.841 381.312 149.42 380.63C150.007 379.948 150.3 378.863 150.3 377.374V368.903H148.364V366.835H154.855V368.903H152.787V377.605C152.787 379.585 152.284 381.096 151.28 382.137C150.282 383.172 148.815 383.689 146.879 383.689C144.928 383.689 143.461 383.175 142.479 382.148C141.503 381.114 141.016 379.552 141.016 377.462V368.903H138.969V366.835H145.482V368.903H143.524Z" fill="#242B3D"/>
<path d="M132.644 368.837L137.132 381.345H138.98V383.414H132.446V381.345H134.613L133.326 377.583H127.308L126.021 381.345H128.122V383.414H121.544V381.345H123.546L128.012 368.837H126.021V366.835H134.635V368.837H132.644ZM130.378 368.837H130.301L127.957 375.636H132.666L130.378 368.837Z" fill="#242B3D"/>
<path d="M306.318 327.356V324.604H312.046V336.553H306.318C305.617 334.569 304.416 332.988 302.715 331.809C301.03 330.631 299.15 330.041 297.076 330.041C295.152 330.041 293.444 330.489 291.952 331.384C290.475 332.264 289.334 333.517 288.529 335.143C287.723 336.754 287.32 338.634 287.32 340.782C287.32 344.437 288.2 347.324 289.961 349.442C291.736 351.545 294.167 352.597 297.255 352.597C299.299 352.597 300.977 352.12 302.29 351.165C303.603 350.195 304.535 348.808 305.087 347.003H299.135V341.274H315C315 344.944 314.269 348.084 312.807 350.695C311.36 353.306 309.272 355.297 306.542 356.67C303.827 358.042 300.575 358.728 296.785 358.728C292.967 358.728 289.625 358.035 286.761 356.647C283.912 355.26 281.719 353.261 280.182 350.65C278.646 348.04 277.877 344.944 277.877 341.364C277.877 338.008 278.653 335.017 280.204 332.391C281.771 329.765 283.912 327.722 286.627 326.26C289.342 324.783 292.407 324.045 295.823 324.045C300.328 324.045 303.827 325.148 306.318 327.356Z" fill="#4795A3"/>
<path d="M274.207 343.669V349.151H270.627V353H273.76V358.326H258.812V353H262.885V349.151H248.967C248.221 347.078 247.609 345.586 247.132 344.676L263.355 324H270.627V343.669H274.207ZM255.098 343.669H262.885V333.935L255.098 343.669Z" fill="#4795A3"/>
<path d="M237.219 327.401V324.604H242.948V334.807H237.219C236.98 333.167 236.443 331.936 235.608 331.115C234.788 330.28 233.721 329.862 232.408 329.862C231.483 329.862 230.693 330.123 230.036 330.645C229.38 331.168 229.052 331.824 229.052 332.615C229.052 333.316 229.261 333.92 229.678 334.427C230.096 334.934 230.633 335.367 231.289 335.725C231.946 336.068 232.93 336.53 234.243 337.112L235.608 337.694C238.577 338.977 240.814 340.484 242.321 342.214C243.843 343.945 244.603 346.108 244.603 348.703C244.603 351.791 243.716 354.238 241.941 356.043C240.165 357.833 237.779 358.728 234.78 358.728C231.856 358.728 229.581 357.632 227.955 355.439V358.325H222.227V346.868H227.955C228.075 348.853 228.582 350.367 229.477 351.411C230.387 352.44 231.61 352.955 233.147 352.955C234.176 352.955 235.041 352.604 235.742 351.903C236.458 351.202 236.816 350.352 236.816 349.352C236.816 348.338 236.406 347.413 235.586 346.578C234.78 345.727 233.4 344.877 231.446 344.027C228.119 342.565 225.703 340.991 224.196 339.305C222.704 337.619 221.958 335.68 221.958 333.487C221.958 331.772 222.354 330.205 223.144 328.788C223.935 327.371 225.024 326.26 226.411 325.454C227.814 324.634 229.335 324.223 230.976 324.223C232.289 324.223 233.482 324.492 234.556 325.029C235.63 325.566 236.518 326.357 237.219 327.401Z" fill="#242B3D"/>
<path d="M210.815 327.401V324.604H216.543V334.807H210.815C210.576 333.167 210.039 331.936 209.204 331.115C208.383 330.28 207.317 329.862 206.004 329.862C205.079 329.862 204.288 330.123 203.632 330.645C202.976 331.168 202.647 331.824 202.647 332.615C202.647 333.316 202.856 333.92 203.274 334.427C203.692 334.934 204.229 335.367 204.885 335.725C205.541 336.068 206.526 336.53 207.839 337.112L209.204 337.694C212.172 338.977 214.41 340.484 215.917 342.214C217.438 343.945 218.199 346.108 218.199 348.703C218.199 351.791 217.311 354.238 215.536 356.043C213.761 357.833 211.374 358.728 208.376 358.728C205.452 358.728 203.177 357.632 201.551 355.439V358.325H195.823V346.868H201.551C201.67 348.853 202.177 350.367 203.073 351.411C203.983 352.44 205.206 352.955 206.742 352.955C207.772 352.955 208.637 352.604 209.338 351.903C210.054 351.202 210.412 350.352 210.412 349.352C210.412 348.338 210.002 347.413 209.181 346.578C208.376 345.727 206.996 344.877 205.042 344.027C201.715 342.565 199.298 340.991 197.792 339.305C196.3 337.619 195.554 335.68 195.554 333.487C195.554 331.772 195.949 330.205 196.74 328.788C197.531 327.371 198.62 326.26 200.007 325.454C201.409 324.634 202.931 324.223 204.572 324.223C205.885 324.223 207.078 324.492 208.152 325.029C209.226 325.566 210.114 326.357 210.815 327.401Z" fill="#242B3D"/>
<path d="M153.688 341.364C153.688 337.948 154.471 334.934 156.037 332.324C157.603 329.713 159.804 327.684 162.638 326.237C165.487 324.776 168.762 324.045 172.461 324.045C176.161 324.045 179.421 324.776 182.24 326.237C185.074 327.684 187.267 329.721 188.819 332.346C190.385 334.972 191.168 337.978 191.168 341.364C191.168 344.795 190.385 347.823 188.819 350.449C187.267 353.074 185.067 355.111 182.218 356.558C179.383 358.005 176.131 358.728 172.461 358.728C168.866 358.728 165.637 358.005 162.772 356.558C159.923 355.111 157.693 353.074 156.082 350.449C154.486 347.823 153.688 344.795 153.688 341.364ZM181.77 341.319C181.77 339.276 181.397 337.418 180.651 335.747C179.905 334.062 178.824 332.727 177.407 331.742C176.004 330.743 174.356 330.243 172.461 330.243C170.567 330.243 168.918 330.743 167.516 331.742C166.114 332.727 165.032 334.062 164.272 335.747C163.526 337.418 163.153 339.276 163.153 341.319C163.153 343.467 163.533 345.399 164.294 347.115C165.07 348.815 166.159 350.158 167.561 351.143C168.963 352.112 170.582 352.597 172.417 352.597C174.311 352.597 175.967 352.112 177.384 351.143C178.816 350.158 179.905 348.815 180.651 347.115C181.397 345.399 181.77 343.467 181.77 341.319Z" fill="#242B3D"/>
<path d="M145.878 335.009V330.333H135.741V338.12H143.081V343.848H135.741V352.597H140.977V358.326H122.136V352.597H126.947V330.333H122.136V324.604H152.345V335.009H145.878Z" fill="#242B3D"/>
<path fill-rule="evenodd" clip-rule="evenodd" d="M15.4701 122.001C16.4357 122.297 17.4586 122.136 18.3317 121.636C19.2681 121.101 20.0234 120.193 20.3757 119.041C20.7349 117.868 20.621 116.685 20.146 115.718C19.707 114.826 18.9527 114.125 17.9881 113.83C17.0226 113.535 15.9996 113.696 15.1265 114.195C14.1902 114.731 13.4349 115.638 13.0825 116.791C12.7234 117.964 12.8373 119.147 13.3122 120.114C13.7512 121.006 14.5056 121.706 15.4701 122.001ZM21.5505 127.264C19.1892 128.615 16.35 129.03 13.5945 128.187C10.8371 127.343 8.71326 125.404 7.50827 122.952C6.3393 120.574 6.04341 117.707 6.89702 114.915C7.75842 112.103 9.6097 109.883 11.9077 108.568C14.269 107.216 17.1082 106.803 19.8637 107.646C22.6212 108.489 24.745 110.428 25.95 112.879C27.1189 115.258 27.4148 118.125 26.5612 120.917C25.6998 123.729 23.8486 125.949 21.5505 127.264ZM6.41425 135.992C6.41425 140.962 5.90228 146.949 7.19778 151.693C7.79443 153.877 8.92252 149.944 9.23886 148.983C10.0827 146.418 11.8756 140.882 12.8587 138.814C13.6889 137.067 14.3206 135.209 12.3448 134.644C9.6496 133.873 6.41425 132.503 6.41425 135.992ZM154.993 23.8369C160.577 20.3134 164.729 17.2172 170.935 14.2797C174.825 12.4372 187.271 8.62955 186.575 8.4125C167.822 2.57641 150.65 26.5768 154.993 23.8369ZM157.981 4.33132C155.953 4.61456 155.228 11.0035 155.737 11.1125C157.463 11.4814 163.736 7.3905 165.118 5.91396C167.731 3.12342 159.214 4.15904 157.981 4.33132ZM132.165 20.7835C136.71 20.7835 140.394 17.1569 140.394 12.6825C140.394 8.2081 136.71 4.58147 132.165 4.58147C127.619 4.58147 123.934 8.2081 123.934 12.6825C123.934 17.1569 127.619 20.7835 132.165 20.7835ZM132.165 16.3286C134.21 16.3286 135.868 14.6963 135.868 12.6825C135.868 10.6697 134.21 9.03738 132.165 9.03738C130.119 9.03738 128.461 10.6697 128.461 12.6825C128.461 14.6963 130.119 16.3286 132.165 16.3286ZM122.627 36.3821C119.935 36.5885 120.768 41.8698 120.861 45.4146C120.993 50.4078 131.861 37.5336 131.151 36.6381C131.061 36.5242 122.685 36.3773 122.627 36.3821ZM105.606 9.61943C103.422 8.77944 100.504 10.6239 98.7931 11.8834C96.2508 13.7541 99.563 14.5493 101.205 15.2881C101.878 15.5898 106.734 17.6368 107.207 16.8737C107.667 16.1261 107.407 10.3124 105.606 9.61943ZM93.0066 46.0055C87.1112 49.6545 96.4805 55.0944 98.8398 45.8935C101.871 34.0753 77.0927 30.6901 79.0841 48.613C79.9329 56.2488 84.8044 62.3165 92.5015 63.649C97.0888 63.0173 101.187 60.986 104.297 58.028C108.044 54.4656 110.36 49.5493 110.36 44.125C110.36 38.6996 108.044 33.7833 104.297 30.2209C100.509 26.6196 95.2579 24.3907 89.4413 24.3907C83.6257 24.3907 78.3746 26.6196 74.5864 30.2209C70.84 33.7833 68.5225 38.6996 68.5225 44.125C68.5225 49.5493 70.84 54.4656 74.5864 58.028C75.1606 58.5741 75.768 59.088 76.4065 59.5678C64.8297 41.2974 82.0362 23.1789 97.5365 31.8123C115.677 41.9165 97.7438 66.6985 86.9116 53.7707C82.5823 48.6042 85.035 43.6938 90.2687 40.4107C91.8143 39.6545 93.6792 40.2939 94.4355 41.8386C95.1908 43.3843 94.5513 45.2492 93.0066 46.0055ZM108.758 62.7175C103.801 67.4314 96.97 70.3475 89.4413 70.3475C81.9126 70.3475 75.0818 67.4314 70.1246 62.7175C65.1256 57.9638 62.0343 51.3899 62.0343 44.125C62.0343 36.8591 65.1256 30.2862 70.1246 25.5324C75.0818 20.8186 81.9126 17.9025 89.4413 17.9025C96.97 17.9025 103.801 20.8186 108.758 25.5324C113.757 30.2862 116.849 36.8591 116.849 44.125C116.849 51.3899 113.757 57.9638 108.758 62.7175ZM48.6013 49.2603C52.3107 50.9733 56.461 53.4767 57.2299 51.7257C58.0173 49.9319 57.6446 37.9103 56.0639 38.2509C54.5825 38.5702 48.5507 42.6533 46.4104 45.3796C44.4481 47.8801 46.1563 48.1302 48.6013 49.2603ZM70.4915 70.9091C69.6058 71.132 69.2885 77.3467 69.2885 78.3181C69.2885 80.2725 69.6769 79.9153 71.5262 79.0617C72.4343 78.6432 77.7458 76.2342 77.7458 75.2891C77.7458 74.16 73.2568 70.2141 70.4915 70.9091ZM41.2108 85.4477C46.0347 86.6089 50.9422 83.4135 52.1705 78.3093C53.3989 73.2061 50.4838 68.1273 45.659 66.9661C40.8351 65.8049 35.9276 69.0014 34.6992 74.1045C33.4709 79.2077 36.386 84.2865 41.2108 85.4477ZM43.3424 80.4214C45.4915 80.4214 47.2328 78.5273 47.2328 76.1913C47.2328 73.8563 45.4915 71.9622 43.3424 71.9622C41.1933 71.9622 39.452 73.8563 39.452 76.1913C39.452 78.5273 41.1933 80.4214 43.3424 80.4214ZM29.7284 92.4139C38.2149 99.4228 51.1067 97.8256 58.5205 88.8476C65.9354 79.8696 65.0652 66.9087 56.5778 59.8997C48.0903 52.8908 35.1995 54.488 27.7857 63.466C20.3708 72.444 21.241 85.4049 29.7284 92.4139ZM33.76 87.9463C39.9046 93.0202 49.2379 91.8649 54.6058 85.364C59.9737 78.8641 59.344 69.4812 53.1993 64.4063C47.0547 59.3323 37.7214 60.4886 32.3535 66.9885C26.9856 73.4884 27.6153 82.8713 33.76 87.9463ZM19.5085 91.9428C17.8324 89.6175 16.5388 85.0214 16.6313 91.6002C16.7131 97.4197 14.2934 96.5447 20.8692 101.511C23.4826 103.485 26.8737 106.226 29.2885 108.478C31.9798 110.986 31.1943 111.014 33.5731 108.797C36.0989 106.443 22.1287 96.2196 19.5085 91.9428ZM213.303 15.6706C193.51 5.64726 171.196 0 147.581 0C146.479 0 145.381 0.0184935 144.284 0.0428268C148.501 3.26358 151.189 8.1351 151.189 13.5867C151.189 23.284 142.684 31.1456 132.191 31.1456C121.699 31.1456 113.194 23.284 113.194 13.5867C113.194 9.73233 114.538 6.16994 116.814 3.27429C50.0769 17.6591 0 77.882 0 150C0 164.509 2.03426 178.535 5.81663 191.807C7.20849 180.259 8.81741 170.034 11.6167 160.114C15.3601 146.851 21.1914 134.253 31.3831 120.015C39.3625 108.864 50.1898 98.0923 62.5258 89.962C73.5517 82.6951 85.7943 77.5248 98.321 76.0415C101.748 75.6356 105.278 75.4701 108.845 75.548C123.924 47.4762 143.932 29.0977 168.433 20.5889C182.072 15.8517 197.055 14.2028 213.303 15.6706ZM137.043 0.384467C132.826 0.688146 128.655 1.168 124.543 1.82305C121.046 4.20576 118.756 8.18085 118.756 12.6825C118.756 19.9718 124.759 25.8818 132.165 25.8818C139.57 25.8818 145.573 19.9718 145.573 12.6825C145.573 7.0878 142.036 2.30582 137.043 0.384467Z" fill="#242B3D"/>
<path fill-rule="evenodd" clip-rule="evenodd" d="M168.912 283.115C166.717 276.167 160.13 277.43 155.334 280.991C151.385 283.922 154.461 289.932 150.016 292.474L148.774 292.897C150.458 288.375 150.637 290.044 150.043 284.376C149.493 279.131 155.291 275.368 159.511 273.84C166.973 271.14 172.018 274.593 174.912 281.441C175.375 283.097 174.406 284.815 172.75 285.277C171.092 285.74 169.374 284.771 168.912 283.115ZM147.581 300C148.079 300 148.573 299.987 149.069 299.981C147.607 298.268 146.294 296.289 144.521 294.907C141.074 292.221 134.873 295.513 131.796 299.145C136.983 299.706 142.247 300 147.581 300ZM152.447 299.911C168.12 299.394 183.416 297.01 197.243 291.277C183.198 286.601 171.573 276.913 167.836 256.086C161.478 267.022 151.606 276.13 140.545 282.093C129.027 288.304 116.707 290.058 105.249 288.866C91.7938 287.467 79.4899 281.978 71.0589 274.86C64.594 269.401 60.071 263.574 56.674 257.641C53.3268 251.794 51.093 245.86 49.1628 240.084C48.6236 238.468 47.9423 236.384 47.368 234.474L47.2697 234.146C43.0951 238.318 38.9293 242.508 34.7653 246.694C57.2775 273.803 89.0733 292.69 125.171 298.281C129.696 291.245 142.003 285.252 147.99 292.981C150.477 296.192 150.595 297.72 152.447 299.911ZM129.953 219.411C129.662 219.285 129.409 219.062 129.249 218.759C127.678 215.515 120.495 220.447 123.36 222.086C123.911 222.401 125.31 222.096 125.962 222.034C125.032 223.037 123.703 223.862 122.379 223.001C117.529 219.844 127.37 211.044 131.827 217.389C132.167 218.028 131.983 218.806 131.427 219.232C130.985 219.513 130.49 219.554 129.953 219.411ZM24.9259 233.436L33.0532 225.309C36.7714 221.59 56.8103 202.591 57.7963 199.206C59.012 195.029 56.312 186.172 50.0388 190.723C49.451 191.151 48.6334 191.829 47.6474 192.695L46.968 193.375C46.7986 193.545 46.6108 193.686 46.4122 193.8C39.3069 200.242 26.1835 213.501 22.3281 217.811C22.2152 218.02 22.0721 218.218 21.8989 218.397C20.8895 219.439 19.2251 219.466 18.1837 218.456C17.6289 217.869 17.259 217.066 17.3875 216.24C17.7145 214.144 35.3902 196.812 43.3433 189.568L59.3342 173.577C60.36 172.55 62.0244 172.55 63.0503 173.577C64.0762 174.603 64.0762 176.266 63.0503 177.293L55.8107 184.533C58.6898 185.366 61.0696 187.777 62.3748 191.536C65.1985 199.663 61.9972 203.663 56.5173 209.262C47.1373 218.847 37.478 228.351 27.954 237.845C29.0967 239.452 30.2647 241.039 31.4677 242.596L35.4437 238.62L37.442 236.623C41.02 233.044 57.5539 215.807 60.6793 214.365C65.3708 212.204 68.3005 215.209 71.0531 218.556C71.9427 219.702 71.7344 221.353 70.5868 222.243C69.4402 223.131 67.7895 222.923 66.9008 221.776C63.21 217.264 63.1009 218.49 58.3268 223.181C56.3927 225.082 54.4607 226.991 52.5325 228.905C52.8177 230.032 53.1856 231.321 53.5779 232.624C54.2115 234.729 54.8315 236.638 55.2968 238.031C57.1043 243.442 59.193 248.992 62.3018 254.422C65.361 259.766 69.4305 265.012 75.2413 269.917C82.7603 276.266 93.792 281.168 105.908 282.429C116.176 283.496 127.199 281.933 137.478 276.39C147.534 270.969 156.491 262.72 162.235 252.842C167.316 244.102 169.869 234.083 168.39 223.645C167.185 215.141 164.025 207.764 159.08 201.994C154.277 196.389 147.755 192.264 139.676 190.061C133.72 188.437 127.725 188.511 122.198 189.922C116.576 191.358 111.462 194.176 107.387 197.995C103.331 201.8 100.302 206.588 98.8319 211.978C97.5685 216.612 97.4547 221.733 98.8271 227.107C100.449 233.46 102.838 237.529 106.248 240.24C109.693 242.979 114.378 244.528 120.477 245.741C122.901 245.583 125.309 245.055 127.592 244.212C131.208 242.875 134.485 240.76 136.987 238.088L136.993 238.094C139.398 235.525 141.071 232.435 141.592 229.043C141.977 226.542 141.736 223.852 140.704 221.055C138.884 216.127 135.42 213.489 131.737 212.609C129.843 212.156 127.88 212.152 126.038 212.528C124.233 212.897 122.569 213.629 121.233 214.656C119.208 216.216 117.951 218.504 118.231 221.241C118.498 223.847 120.119 225.655 121.95 226.352C123.225 226.836 125.435 227.301 126.731 226.429C130.17 224.407 126.75 219.69 129.953 219.411C132.279 221.379 130.607 234.288 119.507 231.889C115.609 230.407 112.335 227.197 111.793 221.9C111.259 216.686 113.558 212.4 117.278 209.537C119.398 207.905 121.984 206.756 124.746 206.191C127.472 205.635 130.395 205.644 133.232 206.323C138.862 207.668 144.112 211.584 146.787 218.824C148.221 222.705 148.548 226.475 148.005 230.007C147.277 234.741 144.986 239.005 141.701 242.512V242.525C138.511 245.931 134.367 248.616 129.822 250.295C125.011 252.072 119.723 252.734 114.613 251.949C104.488 250.391 95.5352 244.851 88.1905 237.409C79.6359 228.741 73.245 217.447 69.7702 206.948C66.2487 196.308 65.0272 184.575 66.127 173.079C67.2055 161.808 70.5197 150.759 76.09 141.189C77.3447 139.031 78.83 136.853 80.507 134.715C86.4083 127.186 94.6641 120.241 103.637 116.431C112.976 112.464 123.098 111.82 132.317 117.184C133.507 117.876 134.69 118.68 135.864 119.6C139.656 122.574 142.795 126.965 144.527 131.74C146.168 136.267 146.576 141.195 145.14 145.702C143.24 151.663 139.339 155.727 134.869 158.014C131.921 159.523 128.72 160.253 125.678 160.24C122.533 160.227 119.522 159.42 117.075 157.859C114.261 156.064 112.208 153.33 111.505 149.707C110.368 143.858 113.03 140.634 117.02 138.895C126.792 134.187 133.812 145.007 119.606 144.827C119.06 144.837 118.652 144.929 118.353 145.09C119.139 145.285 120.137 145.86 121.336 146.952C122.782 148.269 125.38 148.272 127.195 147.807C128.442 147.487 129.733 146.903 130.661 146.1C131.587 145.296 132.149 144.274 132.494 143.269C132.838 142.265 132.967 141.279 133.03 140.786C133.052 140.613 133.072 140.44 133.089 140.268C129.808 123.586 111.926 120.128 100.476 135.164C94.2504 142.435 95.1819 150.453 97.6084 158.603C99.8432 166.113 105.186 171.855 111.865 175.511C119.249 179.552 128.232 181.06 136.512 179.626C142.867 178.382 148.743 174.707 153.626 169.817C159.23 164.203 163.488 157.041 165.677 150.091C169.127 139.136 168.733 128.686 165.302 119.3C161.627 109.247 154.468 100.35 144.805 93.2967C138.76 88.8846 131.48 85.7865 123.815 83.9625C115.624 82.0129 107.04 81.5369 99.0811 82.4801C87.588 83.8408 76.2925 88.6267 66.0745 95.3612C54.4344 103.032 44.2057 113.215 36.6546 123.766C26.9446 137.333 21.3986 149.297 17.8527 161.863C14.2748 174.539 12.4673 189.898 10.7075 206.176C14.4889 216.112 19.085 224.581 24.9259 233.436ZM30.1741 187.708C38.4591 180.142 59.7848 160.784 60.2355 155.232C60.3912 153.314 59.5317 149.518 58.6324 146.107L24.5084 177.757C21.4424 180.874 26.6721 184.205 28.4231 185.957L30.1741 187.708ZM58.0737 137.598C58.1769 137.498 58.2878 137.404 58.4046 137.319L71.6838 127.088C73.1321 125.972 75.2092 126.241 76.3246 127.689C77.4401 129.137 77.1714 131.215 75.7231 132.33L64.1677 141.232C65.5936 146.193 67.5714 153.245 66.5582 157.517C64.4587 166.371 39.6164 187.904 32.3563 194.691L32.3369 194.708L32.3271 194.717C32.3106 194.732 32.2941 194.748 32.2765 194.763L32.2678 194.771L32.2113 194.82L32.2055 194.824L32.1461 194.874L32.1393 194.878C32.0984 194.912 32.0575 194.943 32.0157 194.973L32.0011 194.984L31.9446 195.022L31.9388 195.027C31.9174 195.042 31.896 195.057 31.8736 195.07L31.8726 195.071C31.8502 195.086 31.8269 195.1 31.8045 195.114L31.8015 195.116L31.7402 195.152L31.7198 195.165L31.6663 195.194L31.6546 195.201L31.5933 195.233L31.5806 195.24L31.5241 195.268L31.5037 195.277L31.4482 195.303L31.4317 195.311L31.3762 195.335L31.3558 195.344L31.3042 195.365L31.2721 195.377L31.2331 195.392L31.1942 195.406L31.1582 195.419L31.1153 195.433L31.0823 195.444L31.0423 195.457L31.0054 195.467L30.9606 195.48L30.9294 195.489L30.8837 195.5L30.8535 195.508L30.8087 195.519L30.7708 195.527L30.7328 195.534L30.6958 195.542L30.6443 195.551L30.6219 195.555L30.5674 195.564L30.5401 195.568L30.4963 195.573L30.4564 195.578L30.4184 195.582L30.3776 195.586L30.3377 195.59L30.2997 195.592L30.2637 195.595L30.2131 195.597L30.1878 195.598L30.1381 195.6H30.1011H30.0632H30.0194L29.9814 195.599L29.9474 195.598L29.8948 195.595L29.8714 195.594L29.8169 195.59L29.7936 195.588L29.7361 195.582L29.7167 195.58L29.6563 195.573L29.6369 195.57L29.5804 195.563L29.5561 195.559L29.4986 195.549L29.484 195.546L29.4159 195.533L29.4101 195.532L29.3371 195.516H29.3332L29.268 195.499L29.2446 195.494L29.1843 195.477L29.1774 195.476L29.1093 195.456L29.0957 195.452L29.0344 195.432L29.0198 195.427L28.9584 195.406L28.9438 195.4L28.8796 195.377L28.8738 195.374L28.8115 195.349L28.7881 195.34L28.7346 195.316L28.72 195.31L28.6645 195.284L28.6402 195.273L28.5915 195.248L28.5701 195.238L28.5214 195.212L28.4903 195.196L28.4533 195.175L28.4153 195.154L28.3852 195.135L28.3452 195.111L28.3141 195.092L28.2761 195.067L28.245 195.047L28.2061 195.021L28.1788 195.002L28.136 194.971L28.1126 194.954L28.0688 194.921L28.0445 194.903L28.0026 194.87L27.9822 194.853L27.9326 194.811L27.9199 194.8L27.8742 194.761L27.8527 194.741L27.8177 194.709L27.7885 194.681L27.7593 194.653L27.7369 194.63L23.7433 190.637C19.3877 186.281 13.7161 181.262 18.7317 174.335C19.7624 172.912 54.3293 140.894 58.0737 137.598ZM109.197 135.072C109.737 136.835 110.352 137.41 110.903 139.317C108.382 139.394 107.637 138.483 106.02 136.549C105.612 135.671 105.993 134.629 106.871 134.221C107.748 133.814 108.79 134.194 109.197 135.072ZM113.318 132.105C113.515 133.744 114.051 134.325 114.375 136.163C111.87 136.077 111.288 135.201 109.954 133.087C109.684 132.159 110.216 131.187 111.145 130.915C112.073 130.643 113.046 131.177 113.318 132.105ZM106.158 139.709C106.523 142.04 106.982 141.982 107.582 143.828C105.341 144.666 103.876 142.475 102.819 140.77C102.526 139.848 103.036 138.863 103.957 138.57C104.88 138.277 105.865 138.787 106.158 139.709ZM103.742 144.376C104.667 147.052 105.373 147.442 106.984 149.67C103.409 149.777 102.487 148.517 100.475 145.641C100.126 144.738 100.574 143.724 101.476 143.375C102.379 143.025 103.393 143.474 103.742 144.376ZM102.314 149.638C102.83 152.833 103.651 152.572 106.52 153.36C103.121 156.291 100.418 154.07 98.9215 150.512C98.6801 149.576 99.2446 148.62 100.181 148.378C101.118 148.137 102.073 148.702 102.314 149.638ZM109.983 154.878C109.913 157.16 108.327 158.964 106.163 159.742H106.14C106.121 159.693 106.133 159.716 106.107 159.673L106.09 159.68C106.276 161.516 108.89 161.164 110.363 160.028C111.04 159.507 111.266 159.179 112.009 158.665C112.246 161.3 108.941 163.793 106.417 162.941C99.3264 160.549 106.607 156.079 106.486 155.09C106.428 154.124 107.164 153.294 108.129 153.235C109.095 153.177 109.925 153.913 109.983 154.878ZM113.496 170.452C103.706 165.369 113.683 164.477 115.1 161.466L115.349 161.031C117.314 162.861 114.071 165.039 112.588 166.309C113.345 166.598 114.72 167.173 114.79 167.196C115.689 167.553 116.128 168.572 115.771 169.472C115.414 170.37 114.395 170.809 113.496 170.452ZM112.132 166.736C112.088 166.783 112.05 166.828 112.019 166.87C112.073 166.845 112.109 166.797 112.132 166.736ZM133.653 165.901C128.519 168.692 135.698 174.115 137.152 170.069C137.935 167.892 132.549 165.577 136.639 161.777L136.64 162.874C136.464 167.541 142.162 167.693 139.156 172.454C134.386 180.011 121.129 168.814 131.442 161.786C132.578 161.176 133.994 161.602 134.605 162.739C135.215 163.875 134.789 165.291 133.653 165.901ZM144.433 160.283C140.65 163.398 148.964 166.89 148.137 163.397C147.866 162.251 146.404 162.641 145.42 162.563C147.093 159.495 151.099 161.7 150.448 164.833C148.835 172.605 133.94 165.204 141.256 156.859C142.201 155.982 143.678 156.037 144.556 156.983C145.434 157.928 145.379 159.406 144.433 160.283ZM128.057 106.653C125.746 101.761 126.546 98.8097 132.388 98.1575C134.896 97.8772 135.051 97.9853 136.789 97.6086C132.298 93.9703 118.746 94.0345 123.673 103.906C125.282 107.131 127.606 108.619 130.474 110.496C125.925 110.244 122.365 107.099 120.629 102.993C115.367 90.5539 136.662 88.4437 141.49 96.3627C144.795 101.785 135.465 102.714 132.169 103.173C132.297 103.47 132.439 103.706 132.664 104.124C133.363 105.397 132.898 106.994 131.625 107.692C130.353 108.391 128.755 107.926 128.057 106.653ZM143.045 108.887C149.206 108.059 149.213 112.487 151.56 117.514L151.922 118.524C148.038 119.152 147.576 115.065 144.98 113.552L144.939 113.569C144.917 113.627 144.927 113.617 144.928 113.68C144.771 113.836 144.879 113.743 144.571 113.916C143.182 114.337 141.715 113.553 141.293 112.164C140.872 110.776 141.656 109.308 143.045 108.887ZM152.483 117.191C151.621 112.117 148.154 102.444 141.382 106.801C136.042 110.236 143.263 117.507 146.523 119.336L149.307 120.8C140.106 121.746 130.425 108.06 140.954 102.734C150.266 98.0232 155.931 108.913 157.691 116.483C157.887 117.921 156.878 119.246 155.441 119.44C154.003 119.636 152.679 118.629 152.483 117.191ZM149.257 130.033C144.259 119.234 166.022 116.825 163.633 131.525L162.32 135.214L161.836 131.501C159.919 120.606 151.654 125.689 153.223 127.565C153.905 128.66 153.569 130.1 152.474 130.782C151.379 131.464 149.939 131.128 149.257 130.033ZM155.91 127.475C158.461 127.742 161 129.358 161.182 132.246L160.709 134.499C158.956 133.174 157.886 131.51 156.19 132.138C154.903 132.215 153.796 131.234 153.719 129.947C153.642 128.659 154.622 127.552 155.91 127.475ZM158.178 147.868C159.272 149.426 160.62 151.457 159.544 153.527C157.227 157.991 152.744 151.759 150.889 148.904C151.266 149.674 151.204 150.623 150.648 151.351C147.63 155.288 150.422 160.224 155.086 156.234L156.398 155.149C155.639 165.391 140.708 159.577 146.935 148.517C147.717 147.492 149.183 147.294 150.209 148.077C150.356 148.19 150.487 148.317 150.6 148.454C150.42 148.171 150.279 147.944 150.186 147.797C149.581 146.658 150.015 145.243 151.154 144.639C152.294 144.035 153.708 144.469 154.313 145.607C154.602 146.285 156.919 150.69 157.438 151.73C157.815 150.781 158.086 148.282 158.178 147.868ZM149.603 137.055C158.427 128.734 168.169 142.768 158.178 147.868L158.87 146.079C161.599 139.287 156.001 136.537 153.279 139.937C152.483 140.952 151.015 141.13 150 140.334C148.985 139.538 148.807 138.07 149.603 137.055ZM158.04 141.051C158.996 143.676 159.131 144.641 157.157 146.589C156.277 145.886 154.839 144.081 154.443 144.034C153.62 143.04 153.758 141.568 154.751 140.745C155.744 139.921 157.216 140.058 158.04 141.051ZM157.308 151.987C157.255 152.003 157.203 152.03 157.108 152.088C157.177 152.115 157.243 152.076 157.308 151.987ZM107.791 94.273C109.826 94.673 109.717 94.2506 111.169 93.8768C111.324 93.5887 111.171 90.8157 109.207 90.7573C103.508 90.587 93.4231 97.5249 102.271 103.527C104.468 105.018 109.235 107.072 111.671 108.184L106.307 107.967C94.7585 105.789 90.4175 96.0143 100.289 88.763C117.646 76.0123 124.845 103.046 106.113 100.675C104.345 100.211 103.288 98.4019 103.751 96.6343C104.215 94.8667 106.024 93.8097 107.791 94.273ZM149.622 204.046C145.755 200.8 145.947 203.728 145.384 207.522C140.774 201.772 145.643 197.138 152.055 200.761C152.962 201.433 153.153 202.713 152.481 203.62C151.809 204.527 150.529 204.718 149.622 204.046ZM162.012 220.823C157.411 217.092 157.518 217.191 153.17 220.487L153.637 218.022C155.783 213.173 161.073 215.627 164.322 217.45C165.253 218.088 165.491 219.361 164.853 220.291C164.215 221.223 162.943 221.461 162.012 220.823ZM160.058 214.885C155.295 211.888 154.733 213.625 151.308 217.156C151.054 210.116 156.437 209.034 162.174 211.387C163.14 211.971 163.449 213.228 162.865 214.194C162.281 215.16 161.025 215.469 160.058 214.885ZM155.959 208.881C151.757 207.048 150.919 208.98 148.66 212.219C147.163 205.956 152.203 203.93 157.479 205.087C158.527 205.506 159.036 206.697 158.616 207.744C158.196 208.792 157.007 209.301 155.959 208.881ZM129.902 259.605C129.111 260.149 127.616 261.044 126.778 261.97C128.091 262.378 130.526 262.452 131.278 262.503C132.406 262.539 133.293 263.482 133.258 264.61C133.223 265.738 132.279 266.624 131.151 266.589C129.141 266.45 126.786 266.427 124.88 265.617C118.669 262.978 124.87 258.116 127.722 256.147C128.677 255.545 129.94 255.831 130.541 256.786C131.143 257.741 130.856 259.002 129.902 259.605ZM162.296 226.578C157.827 220.878 158.998 221.48 153.765 225.203C156.279 216.482 160.34 219.2 165.318 223.825C166.078 224.659 166.018 225.952 165.184 226.712C164.349 227.472 163.056 227.413 162.296 226.578ZM161.498 232.368C157.513 226.952 158.519 227.312 152.927 230.845C156.079 222.387 159.809 224.969 164.569 229.67C165.314 230.519 165.231 231.809 164.382 232.555C163.534 233.3 162.242 233.216 161.498 232.368ZM161.229 240.316C157.863 231.923 156.904 233.605 150.832 237.505C151.587 235.459 151.387 235.36 152.779 233.833C157.868 228.247 162.242 233.671 164.903 238.524C165.397 239.538 164.977 240.761 163.962 241.257C162.948 241.752 161.724 241.331 161.229 240.316ZM147.248 244.534C149.586 241.195 156.32 232.932 160.344 239.401C164.176 245.562 158.231 254.495 155.116 249.236C154.367 247.973 154.382 246.717 154.28 245.326C156.439 251.28 158.994 249.588 158.029 244.743C156.657 237.854 153.609 242.562 150.692 246.736C150.084 247.687 148.819 247.966 147.868 247.357C146.917 246.748 146.64 245.485 147.248 244.534ZM149.323 256.015C150.038 255.911 150.74 259.605 151.441 257.798C152.242 255.737 151.08 253.853 150.085 252.146C149.597 251.128 150.026 249.908 151.044 249.419C152.062 248.931 153.283 249.362 153.771 250.38C158.444 262.375 146.492 262.732 149.323 256.015ZM147.041 250.485C139.218 253.979 150.319 253.658 149.323 256.015C148.887 256.079 145.825 255.926 145.798 255.925C139.174 255.687 140.04 250.243 145.259 246.807C146.275 246.314 147.497 246.738 147.989 247.755C148.482 248.771 148.057 249.993 147.041 250.485ZM142.782 260.28C131.648 264.66 130.99 256.091 137.997 251.83C139.043 251.408 140.234 251.914 140.656 252.961C141.078 254.008 140.572 255.199 139.525 255.621C138.256 256.152 134.776 258.5 137.723 259.318L142.782 260.28ZM139.206 265.928C140.968 265.046 145.198 263.146 143.396 261.059L142.782 260.28C147.643 258.872 147.107 264.886 141.242 269.473C140.263 270.035 139.014 269.697 138.451 268.718C137.889 267.739 138.227 266.49 139.206 265.928ZM116.824 274.255C110.858 277.33 108.336 278.467 101.552 278.223C106.499 275.394 109.539 274.422 114.386 270.975C115.292 270.302 116.572 270.491 117.245 271.396C117.919 272.302 117.73 273.582 116.824 274.255ZM123.373 270.327C122.193 273.943 121.168 275.081 117.318 275.74C118.288 273.292 119.302 272.384 119.322 269.772C119.476 268.654 120.507 267.871 121.625 268.025C122.744 268.178 123.526 269.21 123.373 270.327ZM126.478 271.468C129.406 270.568 131.805 268.465 135.093 266.84C134.468 272.503 133.414 273.877 128.712 277.283C127.107 277.9 125.306 277.098 124.688 275.493C124.071 273.887 124.872 272.085 126.478 271.468ZM101.268 264.35C100.966 263.298 100.776 262.365 100.71 261.525C100.406 261.895 100.105 262.316 99.7965 262.795C99.2573 263.787 98.0163 264.153 97.0244 263.614C96.0336 263.075 95.6666 261.834 96.2068 260.842L97.1461 259.38C99.3682 256.423 106.602 252.929 108.083 255.994C109.99 259.938 103.515 257.382 105.149 263.068C105.503 264.14 104.921 265.296 103.849 265.649C102.778 266.004 101.621 265.422 101.268 264.35ZM107.057 273.092C100.889 272.842 98.5506 271.528 95.7844 265.832C100.514 268.489 101.456 269.692 106.682 269.022C107.805 268.919 108.801 269.746 108.904 270.87C109.008 271.994 108.181 272.989 107.057 273.092ZM81.2711 254.451C82.5296 261.723 96.747 264.51 92.5831 268.55C91.6497 269.456 88.757 268.418 86.6497 268.562C84.9542 268.679 83.6801 268.812 82.1305 269.356C81.0638 269.725 79.8997 269.158 79.5317 268.091C79.1629 267.024 79.7293 265.861 80.7961 265.492C82.006 265.067 83.3044 264.743 84.6301 264.558C81.3606 262.567 78.2109 260.651 77.2006 254.823C77.0984 253.7 77.9257 252.705 79.0499 252.602C80.1741 252.499 81.1689 253.327 81.2711 254.451ZM70.5411 234.144C72.6104 235.007 73.6577 231.812 69.5794 230.12C67.2473 229.151 65.5051 227.765 64.8091 227.458C62.9472 226.635 61.9456 231.657 63.2596 234.721C66.1465 241.452 71.6147 245.253 73.9302 253.85L74.8588 259.615C74.9152 260.743 74.0461 261.701 72.9189 261.758C71.7918 261.813 70.8321 260.945 70.7757 259.818L69.9912 254.945C67.4722 245.599 54.412 235.465 59.4928 226.633C63.1058 220.352 67.5121 224.832 71.0774 226.316C80.4097 230.204 76.2137 241.005 68.4767 237.672C67.5024 237.102 67.1753 235.85 67.7447 234.875C68.3151 233.901 69.5668 233.573 70.5411 234.144ZM75.9586 238.593C80.0622 238.492 86.1991 239.764 84.7459 245.141C83.9146 248.218 80.3328 249.158 77.6707 249.76C76.5553 249.934 75.5099 249.171 75.3357 248.055C75.1615 246.94 75.9246 245.895 77.04 245.72C82.6133 244.457 81.6818 242.512 76.4229 242.653C75.3007 242.782 74.2884 241.976 74.1599 240.855C74.0324 239.733 74.8374 238.72 75.9586 238.593ZM86.0394 251.016C88.0474 250.314 97.3933 247.41 96.1582 252.992C95.7688 254.755 93.6217 256.807 92.4011 258.118C91.6517 258.963 90.36 259.039 89.5152 258.291C88.6703 257.541 88.5935 256.25 89.3419 255.405C90.2423 254.438 90.6248 254.056 90.8662 253.796C89.8208 254.016 88.792 254.372 87.8051 254.703C86.7869 255.191 85.5664 254.761 85.0788 253.743C84.5911 252.724 85.0213 251.504 86.0394 251.016ZM117.04 260.934C116.05 261.188 111.497 262.409 114.231 264.384C114.933 264.891 115.687 265.013 116.513 265.134C117.638 265.239 118.465 266.234 118.361 267.358C118.257 268.482 117.262 269.309 116.138 269.206C113.561 268.823 110.988 267.943 109.895 265.307C107.791 260.233 112.151 257.981 116.193 256.935C117.298 256.701 118.382 257.407 118.616 258.512C118.849 259.616 118.144 260.701 117.04 260.934ZM144.192 199.196C138.492 196.618 140.818 200.803 142.054 205.252L139.141 202.501C135.315 197.258 139.32 193.651 145.858 195.462C146.889 195.923 147.351 197.132 146.892 198.162C146.432 199.193 145.223 199.656 144.192 199.196ZM112.913 200.579C111.431 203.283 116.147 203.733 118.685 204.504L115.991 205.186C113.356 205.349 111.124 204.591 110.29 202.874C110.32 203.064 110.312 203.264 110.262 203.463C109.302 206.392 111.436 206.054 114.018 206.846C111.421 208.658 108.993 208.071 107.935 206.076C108.013 206.449 107.945 206.853 107.714 207.194C105.525 209.958 109.1 210.444 110.563 210.981C107.063 213.784 103.12 209.868 105.299 205.553C105.752 204.886 106.659 204.712 107.327 205.166C107.47 205.263 107.592 205.383 107.688 205.515C107.407 204.736 107.305 203.797 107.433 202.738C107.633 201.957 108.429 201.486 109.21 201.686C109.583 201.782 109.886 202.014 110.079 202.316C109.842 201.477 109.895 200.452 110.319 199.238C110.689 198.522 111.57 198.241 112.286 198.612C113.003 198.982 113.283 199.863 112.913 200.579ZM116.794 197.936C114.625 200.098 118.452 200.479 122.696 202.531C118.456 202.548 110.286 201.803 114.69 195.911C115.249 195.331 116.173 195.313 116.754 195.872C117.335 196.431 117.353 197.355 116.794 197.936ZM124.987 195.389C119.769 197.596 121.358 197.174 126.539 201.504C118.522 201.242 115.245 196.734 123.296 191.667C124.323 191.2 125.535 191.655 126.002 192.683C126.47 193.71 126.015 194.922 124.987 195.389ZM135.855 195.029C127.303 195.182 131.191 196.528 135.459 202.205C133.139 201.807 131.916 201.274 130.054 199.591C124.262 194.359 130.198 191.744 135.664 190.946C136.792 190.894 137.749 191.765 137.801 192.893C137.854 194.02 136.983 194.977 135.855 195.029ZM136.361 221.846C135.059 221.781 135.263 221.993 134.161 222.723C132.708 221.151 134.149 219.78 135.636 219.018C136.417 218.817 137.212 219.289 137.413 220.07C137.613 220.851 137.142 221.646 136.361 221.846ZM134.248 226.594C132.262 225.928 135.824 223.475 136.495 223.12C137.28 222.937 138.065 223.424 138.248 224.21C138.432 224.994 137.943 225.78 137.159 225.963C135.172 226.025 135.719 226.02 134.248 226.594ZM135.978 230.325C135.568 229.966 132.518 227.27 134.248 226.594C135.373 226.972 135.54 227.247 137.249 227.697C137.975 228.048 138.279 228.921 137.928 229.647C137.576 230.373 136.704 230.677 135.978 230.325ZM133.909 232.579C133.458 231.881 132.393 231.106 131.712 230.448C133.461 229.39 133.888 229.39 135.873 230.419C136.47 230.961 136.513 231.884 135.971 232.481C135.428 233.078 134.505 233.122 133.909 232.579ZM132.031 235.739C131.278 234.692 130.443 234.316 129.38 233.369C131.409 232.272 132.032 232.495 134.092 233.671C134.663 234.239 134.665 235.164 134.096 235.735C133.527 236.306 132.603 236.308 132.031 235.739ZM129.149 238.106C128.383 236.591 127.716 236.555 126.616 235.477C128.358 234.033 130.05 235.156 131.547 236.439C132.007 237.101 131.843 238.011 131.182 238.471C130.52 238.931 129.61 238.768 129.149 238.106ZM125.794 239.745C125.478 238.388 124.521 237.694 123.956 236.386C125.84 235.577 127.574 237.466 128.576 238.858C128.82 239.627 128.396 240.448 127.628 240.693C126.86 240.937 126.038 240.513 125.794 239.745ZM122.15 240.871C122.344 238.641 121.926 238.71 121.405 236.799C123.835 236.685 124.541 238.712 125.069 240.778C125.094 241.584 124.462 242.258 123.656 242.283C122.85 242.309 122.176 241.677 122.15 240.871ZM118.016 239.93C119.335 238.677 118.855 237.57 118.993 235.913C121.562 237.101 121.498 239.527 120.297 241.754C119.793 242.384 118.874 242.486 118.245 241.982C117.615 241.479 117.513 240.56 118.016 239.93ZM114.168 238.697C115.888 238.55 115.827 236.575 116.36 235.094C118.587 237.285 117.648 240.356 114.908 241.521C114.129 241.726 113.331 241.26 113.126 240.479C112.922 239.699 113.388 238.901 114.168 238.697ZM110.533 236.62C112.935 236.563 112.695 235.563 114.359 233.91C115.356 236.904 113.662 238.676 110.893 239.517C110.093 239.617 109.364 239.048 109.264 238.248C109.165 237.448 109.733 236.719 110.533 236.62ZM107.427 233.305C109.141 233.224 110.226 232.001 111.631 231.188C111.936 233.767 110.242 235.346 107.965 236.175C107.172 236.323 106.409 235.801 106.261 235.008C106.113 234.216 106.635 233.453 107.427 233.305ZM104.604 228.975C106.578 229.98 106.908 229.033 108.718 227.822C108.923 231.223 106.595 232.313 103.575 231.707C102.82 231.423 102.439 230.581 102.722 229.827C103.007 229.072 103.848 228.691 104.604 228.975ZM102.443 223.615C103.951 226.327 106.247 224.743 107.986 224.055C107.96 227.335 102.923 228.567 100.008 225.226C99.5629 224.553 99.7478 223.648 100.42 223.203C101.093 222.759 101.998 222.942 102.443 223.615ZM103.42 216.848C105.037 222.25 105.079 222.017 108.764 221.626C108.387 222.361 108.493 222.381 107.833 222.839C104.196 225.365 101.559 219.563 100.533 217.283C100.414 216.485 100.963 215.742 101.76 215.622C102.557 215.502 103.3 216.051 103.42 216.848ZM104.539 211.218C104.358 215.595 105.06 214.792 108.8 216.578C103.749 218.046 102.209 215.952 101.62 211.253C101.61 210.447 102.255 209.786 103.061 209.776C103.868 209.766 104.529 210.412 104.539 211.218ZM47.5948 203.409C49.1405 204.992 52.0264 202.2 51.9261 200.958C52.0585 200.948 52.1996 200.937 52.3515 200.924C55.7426 200.629 57.2376 194.416 53.791 193.832C51.4356 193.434 49.9191 196.968 49.9318 199.186C49.9386 199.365 49.9474 199.528 49.959 199.676C47.5043 199.053 44.047 199.592 47.5948 203.409ZM35.1264 213.215C37.6221 219.549 40.4924 213.786 40.2199 212.548C40.1732 212.333 40.0943 212.133 39.9902 211.948C43.0406 211.78 43.9429 210.223 43.3608 209.07C46.0608 209.009 50.3124 204.353 45.1654 203.282C42.9472 202.822 42.4138 203.397 41.6838 205.457C41.492 206.548 41.5271 207.351 41.7188 207.919C41.2292 207.805 40.653 207.782 40.0009 207.886C38.9273 208.057 38.5604 209.786 39.0091 210.967C37.151 209.833 34.0139 210.358 35.1264 213.215ZM31.2789 216.306C28.7025 216.127 28.1253 217.982 29.5833 219.918C33.4864 225.1 37.3242 216.728 31.2789 216.306ZM25.362 221.693C24.5989 221.899 22.7116 224.489 24.0655 226.046C28.281 230.896 31.3003 220.094 25.362 221.693ZM28.3336 180.726C31.273 186.232 35.9265 178.381 30.69 177.115C28.3345 176.545 27.6337 178.625 28.3336 180.726ZM54.7001 155.835C57.6853 162.446 59.779 153.946 58.538 151.914C57.9637 150.972 53.1973 152.326 54.7001 155.835ZM51.5602 163.33C59.1015 164.86 53.646 151.85 49.9143 158.786C48.7774 160.899 49.4471 162.348 51.5602 163.33ZM44.8335 166.647C47.2279 171.062 50.47 167.247 49.3634 164.452C47.5053 159.759 43.4533 163.622 44.8335 166.647ZM41.8775 171.247C43.1399 171.643 44.5668 170.247 44.7303 169.896C45.2734 168.721 43.4328 164.996 41.7354 166.668C41.2594 167.137 40.5713 168.531 40.5917 169.548C39.2417 169.322 35.5119 171.983 34.7011 172.964C32.6639 175.19 36.2059 178.08 37.0527 177.978C38.0114 177.864 42.3281 174.032 41.8775 171.247ZM21.9417 166.267C21.2078 162.802 20.8516 161.624 23.0075 158.92C24.377 160.927 24.8306 162.31 26.1679 164.275C26.7178 165.442 26.2175 166.834 25.0505 167.385C23.8845 167.935 22.4926 167.434 21.9417 166.267ZM31.8239 157.663C25.0019 156.155 25.4321 148.598 28.575 144.064L30.9859 141.557C30.9304 143.465 29.339 152.528 32.2726 152.232C33.7725 152.356 34.888 153.671 34.7644 155.171C34.6408 156.671 33.3238 157.787 31.8239 157.663ZM43.5983 134.307C37.6951 133.457 38.794 141.704 44.0918 138.569C45.9372 137.477 45.9207 135.712 45.4038 134.056C44.8568 134.299 44.2359 134.398 43.5983 134.307ZM47.0926 132.363C48.9039 134.893 49.4539 139.977 45.2841 142.4C33.5399 149.227 28.2353 127.399 44.5278 127.755C46.3373 128.012 47.5968 129.686 47.3398 131.495C47.296 131.802 47.2113 132.093 47.0926 132.363ZM56.0316 122.393C56.604 113.474 48.3978 120.255 51.6322 124.446C54.6154 128.312 64.5288 126.806 68.7803 126.843C66.2059 128.291 66.6633 128.252 63.5691 128.991C44.7138 133.49 42.6746 117.491 52.2288 113.848C58.8563 111.32 61.4297 117.023 61.4619 122.859C61.3334 124.359 60.0135 125.47 58.5136 125.341C57.0147 125.212 55.9032 123.892 56.0316 122.393ZM89.2748 94.7606C89.6709 99.9699 89.5347 105.734 83.2664 106.777C74.0188 108.317 80.3561 112.503 86.8161 112.99C107.703 114.566 73.9799 111.627 95.8925 113.586C91.2487 115.015 91.6225 115.188 86.7967 115.536C81.347 115.931 72.2211 113.234 75.2355 106.611C78.4912 99.455 84.8724 106.577 84.1463 97.3983C77.8927 97.8977 72.6853 101.766 71.0385 108.094C68.3959 118.242 79.6894 119.491 86.6555 120.67L81.5397 121.558C69.1453 122.105 63.1905 111.898 69.4432 101.374C73.4309 94.6633 78.7628 92.2543 86.0784 91.9662C86.5757 91.8776 87.0673 91.9312 87.5101 92.0986L87.5345 92.1073C87.5549 92.1151 87.5753 92.1229 87.5948 92.1317C87.8167 92.2231 88.0231 92.3429 88.21 92.4859L88.2187 92.4937L88.2479 92.5171L88.2732 92.5366L88.2868 92.5482C88.645 92.8432 88.9302 93.2315 89.1015 93.6851L89.1064 93.6987L89.1093 93.7065L89.1181 93.7308L89.1307 93.7669L89.1356 93.7795C89.2397 94.0881 89.2894 94.42 89.2748 94.7606ZM117.957 131.135C120.629 131.066 121.067 131.796 125.167 134.414C119.602 134.585 121.986 134.51 118.012 134.638C117.045 134.654 116.249 133.882 116.233 132.914C116.218 131.947 116.989 131.15 117.957 131.135ZM121.127 166.988L121.161 166.987L121.158 166.978C118.486 166.565 118.227 171.955 122.388 172.064C123.629 172.097 124.709 169.045 122.887 166.554C122.441 166.998 121.77 167.187 121.127 166.988ZM123.397 165.424C125.969 167.013 126.978 174.532 122.028 174.406C113.53 174.19 115.129 162.172 122.168 163.642C122.956 163.887 123.446 164.636 123.397 165.424ZM21.6341 202.635C17.3048 197.046 16.3606 195.752 16.4385 188.743C20.2724 192.133 22.0244 194.625 26.056 197.71C27.4157 198.93 27.5286 201.023 26.3081 202.383C25.0865 203.743 22.9948 203.855 21.6341 202.635ZM46.8736 245.359C49.7945 248.185 50.6861 248.878 50.6988 252.894C48.1185 251.591 47.039 250.547 44.3906 249.317C43.2985 248.632 42.9676 247.189 43.6538 246.097C44.339 245.004 45.7805 244.673 46.8736 245.359ZM158.007 294.712C163.484 294.171 169.239 294.764 172.677 288.484L173.437 286.735C174.129 285.16 175.966 284.443 177.541 285.134C179.116 285.826 179.833 287.664 179.14 289.239L177.51 291.8C172.805 297.834 160.269 300.142 158.007 294.712ZM163.158 288.717C162.649 284.133 155.488 289.115 156.995 292.628L157.593 293.719L158.007 294.712C156.48 294.863 156.691 295.097 155.302 293.921C148.3 287.99 164.963 273.541 169.294 287.643C169.591 289.337 168.458 290.951 166.764 291.248C165.07 291.545 163.455 290.412 163.158 288.717Z" fill="#242B3D"/>
<path fill-rule="evenodd" clip-rule="evenodd" d="M264.761 118.185H183.016C184.267 121.509 185.908 124.622 187.874 127.481H259.903C261.869 124.622 263.51 121.509 264.761 118.185ZM191.762 132.349C193.422 134.147 195.23 135.802 197.163 137.297H250.614C252.547 135.802 254.355 134.147 256.015 132.349H191.762ZM205.059 142.164C210.799 144.911 217.2 146.433 223.888 146.433C230.577 146.433 236.978 144.911 242.718 142.164H205.059Z" fill="#242B3D"/>
<path fill-rule="evenodd" clip-rule="evenodd" d="M222.052 112.838C222.85 113.409 224.332 113.409 225.166 113.152C226.001 112.894 226.186 112.38 226.278 102.709C226.371 93.0377 226.371 74.2116 226.04 63.0144C225.708 51.8172 225.044 48.2489 224.552 46.4385C224.061 44.6281 223.742 44.5746 223.235 45.4798C222.729 46.385 222.037 48.2489 221.638 50.0068C221.239 51.7636 221.132 53.4144 221.078 63.393C221.026 73.3706 221.026 91.677 221.082 101.401C221.14 111.125 221.254 112.267 222.052 112.838Z" fill="#242B3D"/>
<path fill-rule="evenodd" clip-rule="evenodd" d="M208.688 268.633C211.808 268.633 214.338 266.246 214.338 263.301C214.338 260.354 211.808 257.967 208.688 257.967C205.568 257.967 203.039 260.354 203.039 263.301C203.039 266.246 205.568 268.633 208.688 268.633ZM208.688 274.222C211.981 274.222 214.947 272.975 217.082 270.96C219.163 268.995 220.451 266.287 220.451 263.301C220.451 260.313 219.163 257.605 217.082 255.64C214.947 253.625 211.981 252.378 208.688 252.378C205.396 252.378 202.429 253.625 200.295 255.64C198.213 257.605 196.926 260.313 196.926 263.301C196.926 266.287 198.213 268.995 200.295 270.96C202.429 272.975 205.396 274.222 208.688 274.222ZM221.517 275.674C218.222 278.786 213.684 280.711 208.688 280.711C203.692 280.711 199.155 278.786 195.859 275.674C192.509 272.512 190.437 268.137 190.437 263.301C190.437 258.463 192.509 254.088 195.859 250.926C199.155 247.814 203.692 245.889 208.688 245.889C213.684 245.889 218.222 247.814 221.517 250.926C224.868 254.088 226.94 258.463 226.94 263.301C226.94 268.137 224.868 272.512 221.517 275.674ZM209.189 286.326C214.909 283.651 220.431 280.616 225.729 277.249C228.727 273.343 230.508 268.465 230.508 263.17C230.508 256.746 227.886 250.934 223.648 246.73C219.407 242.523 213.537 239.92 207.044 239.92C204.694 239.92 202.427 240.261 200.287 240.895C197.717 241.658 195.381 242.787 193.085 244.47C192.146 245.159 191.262 245.914 190.439 246.73C186.201 250.934 183.58 256.746 183.58 263.17C183.58 269.594 186.201 275.407 190.439 279.612C194.681 283.818 200.551 286.421 207.044 286.421C207.767 286.421 208.483 286.389 209.189 286.326Z" fill="#242B3D"/>
<path d="M293.748 170.767C293.518 172.457 293.267 174.14 292.982 175.811C290.289 177.928 287.528 180.15 285.058 182.238C279.842 186.647 276.002 190.402 272.009 194.306C271.2 195.097 270.384 195.897 269.548 196.707C267.06 199.124 264.446 201.614 261.892 203.925C259.284 206.286 256.617 208.581 253.997 210.631C251.426 212.643 248.902 214.413 246.431 215.973C243.986 217.518 241.599 218.85 239.28 220.004H239.267C236.923 221.169 234.683 222.141 232.405 223.002C230.065 223.887 227.656 224.677 225.041 225.452C223.64 225.868 221.984 226.333 220.286 226.811C216.083 227.992 211.613 229.251 207.298 230.845C204.103 232.027 201.02 233.381 197.99 234.818C193.369 236.275 189.229 238.816 185.877 242.142C180.448 247.526 177.09 254.962 177.09 263.17C177.091 271.379 180.449 278.814 185.877 284.199C189.047 287.344 192.921 289.788 197.242 291.276C192.634 289.742 188.286 287.668 184.392 284.838L184.391 284.837C184.206 284.703 184.022 284.566 183.84 284.429L183.838 284.428C183.655 284.29 183.473 284.15 183.293 284.009L183.291 284.008C183.111 283.867 182.931 283.723 182.753 283.578L182.751 283.577C182.573 283.433 182.394 283.286 182.218 283.138L182.217 283.137C177.265 278.969 173.185 273.384 170.434 265.868C170.336 265.6 170.24 265.329 170.145 265.056C170.05 264.783 169.957 264.507 169.866 264.229C169.774 263.95 169.685 263.669 169.597 263.386C169.51 263.103 169.423 262.817 169.339 262.529C169.255 262.24 169.171 261.949 169.09 261.655C169.01 261.362 168.931 261.066 168.854 260.767C168.776 260.468 168.702 260.166 168.629 259.863C168.555 259.558 168.484 259.251 168.414 258.942C168.344 258.633 168.275 258.321 168.21 258.006C168.143 257.692 168.08 257.374 168.017 257.054C167.955 256.734 167.895 256.412 167.837 256.086C168.573 254.37 169.348 252.532 170.399 251.164C172.652 248.723 174.904 246.285 176.96 244.141C179.135 241.873 181.211 239.794 183.087 238.096C184.933 236.425 186.671 235.042 188.414 233.848C190.118 232.681 191.81 231.715 193.603 230.847C195.444 229.956 197.385 229.168 199.392 228.465C201.446 227.746 203.57 227.113 205.725 226.551C208.099 225.933 210.455 225.41 212.815 224.885C215.137 224.369 217.466 223.851 219.379 223.369C221.726 222.777 224.065 222.111 226.415 221.312C228.771 220.511 231.128 219.578 233.507 218.455C235.867 217.341 238.234 216.042 240.619 214.587C242.943 213.168 245.319 211.572 247.748 209.828C250.165 208.094 252.576 206.256 255.099 204.218C257.722 202.1 260.422 199.815 263.324 197.261C266.524 194.443 270.884 190.46 274.955 186.74C276.719 185.127 278.409 183.582 281.353 180.931C283.99 178.557 286.125 176.684 288.02 175.126C289.965 173.527 291.779 172.144 293.748 170.767ZM290.93 185.769C282.713 219.895 263.009 249.438 236.219 269.923C236.727 267.754 236.997 265.493 236.997 263.17C236.997 254.962 233.639 247.526 228.211 242.142C224.833 238.792 220.659 236.238 215.997 234.786C218.036 234.171 220.066 233.6 222.035 233.046C223.633 232.597 225.192 232.159 226.866 231.662C229.642 230.839 232.2 230.001 234.685 229.061C237.232 228.097 239.676 227.043 242.157 225.809L242.154 225.804C244.655 224.559 247.233 223.12 249.88 221.449C252.505 219.79 255.205 217.894 257.976 215.727C260.697 213.597 263.486 211.196 266.226 208.716C269.019 206.187 271.645 203.691 274.06 201.346C274.896 200.534 275.712 199.736 276.522 198.944C280.415 195.137 284.16 191.474 289.241 187.18C289.789 186.717 290.353 186.245 290.93 185.769ZM294.993 157.125C294.911 158.888 294.795 160.642 294.655 162.389C293.189 163.33 291.647 164.352 290.13 165.411C287.965 166.921 286.001 168.417 283.915 170.132C281.752 171.91 279.573 173.816 277.018 176.116C276.082 176.96 273.396 179.413 270.594 181.974C267.019 185.242 263.186 188.745 259.041 192.394C256.076 195.003 253.449 197.232 251.045 199.174C248.54 201.196 246.223 202.967 243.971 204.582C241.73 206.19 239.494 207.69 237.248 209.062C235.061 210.396 232.896 211.585 230.745 212.6C228.613 213.606 226.481 214.449 224.337 215.178C222.187 215.909 220.012 216.527 217.807 217.082C215.425 217.684 213.42 218.13 211.421 218.574C208.944 219.124 206.472 219.673 204.103 220.29C201.769 220.899 199.476 221.582 197.264 222.356C195.005 223.146 192.833 224.028 190.79 225.017C188.7 226.028 186.735 227.151 184.763 228.5C182.832 229.823 180.873 231.386 178.753 233.305C177.422 234.51 176.061 235.822 174.682 237.208C175.061 234.808 175.266 232.365 175.283 229.889C177.449 228.427 179.56 227.01 181.373 225.836C183.906 224.195 186.403 222.644 188.828 221.275C193.703 218.522 198.789 216.212 201.334 215.057L203.148 214.234C203.423 214.25 203.699 214.264 203.974 214.274C210.93 214.505 218.212 212.157 224.173 207.174L224.548 206.85C226.031 205.571 227.357 204.184 228.526 202.715C233.152 200.938 237.774 199.145 242.292 197.055C244.657 195.962 246.999 194.778 249.338 193.484C251.666 192.194 253.93 190.825 256.147 189.361C258.353 187.902 260.554 186.32 262.72 184.639C264.93 182.926 267.052 181.155 269.058 179.352C271.945 176.757 274.729 173.971 277.303 171.396C278.215 170.484 279.1 169.598 279.957 168.755C281.573 167.166 283.049 165.762 284.389 164.562C285.704 163.383 286.981 162.319 288.247 161.365C289.459 160.45 290.596 159.692 291.703 159.015C292.852 158.311 293.923 157.71 294.993 157.125ZM106.172 122.386C113.748 119.168 121.856 118.587 129.073 122.786C130.035 123.347 130.975 123.981 131.885 124.695C134.737 126.93 137.114 130.278 138.444 133.945C139.631 137.219 139.955 140.693 138.981 143.749C137.661 147.891 134.986 150.697 131.929 152.261C129.921 153.288 127.754 153.785 125.704 153.777C125.552 153.776 125.403 153.772 125.255 153.767H125.247C115.954 153.429 114.247 144.066 118.355 145.09C118.412 145.105 118.533 145.139 118.592 145.159L118.657 145.18C118.72 145.202 118.785 145.228 118.851 145.254L118.907 145.278C118.976 145.307 119.046 145.337 119.117 145.371L119.173 145.398C119.247 145.435 119.323 145.475 119.401 145.518L119.442 145.54C119.525 145.586 119.608 145.634 119.694 145.687L119.727 145.707C119.816 145.762 119.906 145.821 119.998 145.882L120.023 145.9C120.12 145.966 120.219 146.037 120.32 146.112L120.331 146.119C120.434 146.195 120.539 146.276 120.646 146.362L120.655 146.368C120.763 146.455 120.873 146.547 120.986 146.642L120.99 146.646C121.103 146.742 121.219 146.844 121.337 146.952C122.782 148.268 125.381 148.272 127.195 147.807C128.442 147.487 129.733 146.903 130.661 146.1C131.587 145.296 132.149 144.273 132.494 143.269C132.838 142.265 132.967 141.279 133.03 140.785C133.044 140.685 133.055 140.586 133.066 140.486L133.068 140.47L133.069 140.461L133.085 140.316V140.307L133.087 140.291L133.088 140.283L133.089 140.276L133.09 140.268C133.114 140.016 133.134 139.764 133.149 139.513V139.503C133.163 139.277 133.172 139.051 133.175 138.826C133.178 138.694 133.178 138.562 133.178 138.431V138.411C133.178 138.323 133.178 138.234 133.176 138.146L133.173 138.009C133.172 137.925 133.169 137.841 133.166 137.756L133.164 137.706C133.159 137.592 133.153 137.475 133.146 137.361L133.143 137.32C133.138 137.234 133.131 137.148 133.126 137.063V137.061L133.114 136.927C133.107 136.846 133.1 136.766 133.092 136.685L133.085 136.616C133.075 136.52 133.065 136.426 133.053 136.33L133.041 136.225C133.031 136.15 133.021 136.074 133.011 135.998L133.009 135.987L132.991 135.854C132.979 135.777 132.967 135.7 132.956 135.623L132.942 135.541C132.929 135.463 132.916 135.382 132.902 135.303L132.876 135.154C132.863 135.087 132.85 135.02 132.838 134.953L132.804 134.789L132.767 134.618L132.732 134.459L132.692 134.285C132.677 134.222 132.662 134.159 132.645 134.096L132.603 133.93C132.588 133.868 132.572 133.805 132.554 133.742L132.511 133.585L132.464 133.418L132.416 133.258C132.397 133.196 132.378 133.135 132.359 133.074L132.31 132.921C132.289 132.854 132.267 132.787 132.245 132.72L132.207 132.608C132.183 132.54 132.159 132.471 132.134 132.403L132.079 132.25L132.008 132.063L131.956 131.925C131.93 131.861 131.905 131.797 131.879 131.733C130.195 127.581 126.929 124.18 122.386 122.799C117.994 121.699 113.816 121.868 110.003 123.003C105.273 124.411 101.151 127.302 97.9079 131.091C94.7311 134.802 92.396 139.385 91.1745 144.263C89.8576 149.521 89.8213 155.154 91.3981 160.454C94.1546 169.712 100.661 176.748 108.772 181.188C111.416 182.634 114.234 183.805 117.147 184.684C111.825 186.559 106.975 189.508 102.952 193.281C98.0589 197.869 94.3941 203.687 92.5963 210.28C91.0411 215.982 90.8861 222.224 92.5407 228.703C93.074 230.789 93.6857 232.685 94.3835 234.412C93.8484 233.91 93.3219 233.397 92.8034 232.871C84.9837 224.948 79.1268 214.581 75.9294 204.919C72.6804 195.101 71.5528 184.281 72.5661 173.687C73.5569 163.331 76.5928 153.194 81.6921 144.432C82.8152 142.502 84.1297 140.572 85.6012 138.694C90.8825 131.957 98.2292 125.76 106.172 122.386ZM115.985 76.0267C140.451 32.4741 177.373 14.9319 226.751 23.3997C259.032 44.2932 282.815 77.6558 291.519 116.765C289.903 117.484 288.483 118.169 287.148 118.882C285.467 119.782 284.056 120.662 282.702 121.644C281.33 122.639 279.977 123.765 278.622 125.071C277.308 126.338 275.994 127.787 274.667 129.466C272.918 131.68 271.25 134.159 269.497 136.763C268.685 137.97 267.854 139.206 266.966 140.484C265.637 142.399 264.251 144.306 262.846 146.103C261.464 147.87 260.033 149.567 258.579 151.106C257.169 152.597 255.765 153.904 254.339 155.07H254.326C252.878 156.253 251.409 157.298 249.887 158.246C248.319 159.225 246.733 160.096 245.176 160.841C243.529 161.632 241.88 162.31 240.29 162.86C238.791 163.377 237.32 163.783 235.791 164.049C234.297 164.309 232.786 164.427 231.185 164.374C229.527 164.321 227.679 164.082 225.737 163.752C223.826 163.428 221.869 163.02 219.909 162.61C216.927 161.352 213.701 160.665 210.404 160.556C203.449 160.324 196.166 162.671 190.206 167.654L189.831 167.978C184.073 172.946 180.658 179.536 179.786 186.226C178.9 193.03 180.631 199.932 185.184 205.379C185.226 205.43 185.237 205.439 185.435 205.668C187.66 208.248 190.33 210.252 193.268 211.677C190.984 212.787 188.345 214.131 185.66 215.648C182.99 217.155 180.4 218.76 177.85 220.411C176.761 221.116 175.739 221.789 174.757 222.441C173.341 212.826 169.692 204.43 163.998 197.786C158.75 191.662 151.794 187.057 143.282 184.385C148.819 182.262 153.877 178.722 158.213 174.38C164.553 168.029 169.377 159.909 171.862 152.017C175.758 139.644 175.293 127.787 171.385 117.095C167.261 105.811 159.306 95.8845 148.607 88.0755C141.808 83.1125 133.736 79.6558 125.31 77.6507C122.239 76.9198 119.116 76.38 115.985 76.0267ZM210.201 167.019C215.513 167.196 220.549 169.334 224.051 173.393C224.106 173.457 224.044 173.387 224.226 173.606C227.571 177.607 228.837 182.711 228.178 187.767C227.505 192.937 224.831 198.061 220.314 201.958C220.265 202.002 220.257 202.004 220.015 202.206C215.313 206.137 209.605 207.991 204.177 207.81C198.865 207.634 193.829 205.495 190.327 201.436C190.272 201.373 190.335 201.441 190.152 201.222C186.808 197.221 185.54 192.116 186.199 187.062C186.872 181.892 189.546 176.768 194.063 172.87C194.114 172.827 194.12 172.824 194.362 172.622C199.064 168.692 204.774 166.839 210.201 167.019ZM221.6 179.338C217.616 172.433 208.229 170.388 200.633 174.77C193.038 179.153 190.111 188.304 194.093 195.208C198.077 202.113 207.464 204.158 215.06 199.775C222.655 195.393 225.583 186.243 221.6 179.338ZM201.607 179.925C206.072 176.134 212.484 176.351 215.929 180.409C219.376 184.467 218.55 190.83 214.087 194.621C209.622 198.411 203.21 198.195 199.763 194.136C196.318 190.078 197.144 183.716 201.607 179.925ZM87.8288 174.512C85.0469 173.909 82.6692 174.572 80.8317 176.006C79.4932 177.051 78.5045 178.481 77.9118 180.099C77.3579 181.611 77.142 183.317 77.3073 185.03C77.6055 188.122 79.1445 191.258 82.1803 193.346C83.6466 194.354 85.4437 194.851 87.2624 194.891C88.8389 194.925 90.473 194.609 91.9255 193.981C93.4914 193.303 94.8753 192.258 95.8219 190.881C96.6234 189.716 97.1083 188.344 97.1422 186.786C97.2112 183.611 96.3992 180.921 94.821 178.812C93.184 176.624 90.8127 175.159 87.8288 174.512ZM295.027 143.84C295.107 145.777 295.153 147.725 295.158 149.681C294.505 150.031 293.533 150.557 292.06 151.361C290.783 152.058 289.536 152.752 288.331 153.49C287.025 154.289 285.707 155.165 284.344 156.193C283.036 157.18 281.62 158.366 280.081 159.745C278.567 161.101 277.026 162.562 275.421 164.142C274.548 164.999 273.646 165.902 272.715 166.832C270.262 169.288 267.606 171.944 264.723 174.535C262.769 176.292 260.774 177.963 258.767 179.519C256.759 181.076 254.686 182.565 252.574 183.961C250.45 185.365 248.329 186.649 246.194 187.83C244.069 189.007 241.868 190.116 239.58 191.175C237.567 192.106 235.489 192.992 233.374 193.851C233.955 192.127 234.362 190.368 234.592 188.603C234.75 187.391 234.824 186.178 234.815 184.969C235.607 184.784 236.436 184.582 237.333 184.347C239.143 183.872 241.006 183.303 242.973 182.546C244.951 181.786 246.907 180.894 248.829 179.894C250.866 178.833 252.948 177.62 255.05 176.284C257.162 174.94 259.309 173.46 261.465 171.831C263.413 170.361 265.401 168.733 267.413 166.934C270.182 164.458 272.778 161.846 275.144 159.466C276.263 158.341 277.33 157.268 278.328 156.296C279.835 154.83 281.158 153.621 282.558 152.469C283.971 151.307 285.516 150.157 287.462 148.815C289.724 147.253 292.524 145.436 295.027 143.84ZM210.343 185.153C209.28 183.899 207.298 183.831 205.919 185.002C204.54 186.173 204.285 188.14 205.349 189.394C206.414 190.647 208.396 190.714 209.774 189.543C211.153 188.371 211.408 186.406 210.343 185.153ZM86.196 180.803L86.4596 180.849C86.7645 180.915 87.0544 180.996 87.3268 181.09C86.9236 181.482 86.5259 181.925 86.1335 182.409C85.5032 183.345 85.7511 184.615 86.6872 185.245C87.6233 185.876 88.8937 185.628 89.5241 184.692C89.7906 184.359 90.0183 184.03 90.2487 183.788C90.5547 184.584 90.7036 185.545 90.6794 186.66C90.6749 186.863 90.6081 187.046 90.4987 187.205C90.2622 187.549 89.8558 187.837 89.3649 188.049C88.7606 188.31 88.0684 188.442 87.3893 188.427C86.7825 188.414 86.2342 188.284 85.8551 188.023C84.5407 187.119 83.8742 185.761 83.7448 184.421C83.6738 183.685 83.7643 182.962 83.9958 182.329C84.1891 181.802 84.4666 181.37 84.8112 181.101C85.1365 180.847 85.5993 180.725 86.196 180.803ZM292.826 123.286C293.594 127.621 294.166 132.024 294.558 136.48C291.528 138.387 287.136 141.18 283.786 143.493C281.712 144.923 280.033 146.175 278.453 147.475C276.859 148.786 275.415 150.102 273.816 151.659C272.797 152.649 271.704 153.75 270.556 154.904C268.207 157.267 265.63 159.86 263.104 162.118C261.332 163.702 259.474 165.217 257.562 166.66C255.581 168.157 253.575 169.539 251.578 170.809C249.636 172.044 247.714 173.163 245.838 174.139C243.99 175.102 242.257 175.902 240.667 176.513C238.997 177.155 237.349 177.656 235.711 178.086C235.151 178.232 234.554 178.378 233.934 178.522C233.188 175.793 231.964 173.183 230.248 170.806C230.493 170.819 230.739 170.83 230.983 170.838C233.083 170.906 235.015 170.761 236.88 170.437C238.708 170.119 240.517 169.617 242.394 168.968C244.227 168.335 246.107 167.562 247.964 166.671C249.817 165.783 251.621 164.801 253.309 163.747C255.091 162.635 256.789 161.431 258.432 160.088L258.427 160.081C260.09 158.723 261.701 157.225 263.293 155.541C264.844 153.9 266.406 152.045 267.941 150.081C269.454 148.147 270.912 146.142 272.29 144.159C273.157 142.91 274.024 141.621 274.871 140.363C276.576 137.829 278.197 135.42 279.737 133.472C280.843 132.072 281.964 130.838 283.109 129.735C284.213 128.669 285.342 127.734 286.504 126.891C287.682 126.035 288.855 125.301 290.19 124.586C290.96 124.175 291.829 123.747 292.826 123.286ZM176.617 113.409C181.47 135.043 200.79 151.208 223.888 151.208C246.987 151.208 266.307 135.043 271.16 113.409H176.617ZM225.175 53.6126C223.657 51.6183 223.345 51.563 221.716 53.3929C220.088 55.2229 217.143 58.9385 211.638 67.8197C206.132 76.7013 198.066 90.7473 193.716 98.3607C189.367 105.973 188.732 107.151 188.687 107.899C188.642 108.646 189.187 108.963 199.652 109.121C210.119 109.28 230.51 109.28 242.178 109.099C253.847 108.918 256.792 108.555 258.151 108.012C259.51 107.468 259.283 106.742 254.684 99.2894C250.085 91.8356 241.113 77.6519 235.265 68.5951C229.417 59.5375 226.694 55.606 225.175 53.6126ZM157.211 56.4261C156.271 56.432 155.193 56.6946 154.152 57.263C153.112 57.8314 152.106 58.7054 151.327 59.8441C150.547 60.9819 149.994 62.3859 149.441 63.7894C142.314 61.7415 137.828 63.8503 135.981 70.1165H175.353C175.038 69.2864 174.75 68.5456 174.257 67.7923C173.745 67.0117 173.015 66.221 172.219 65.6292C171.423 65.0365 170.562 64.6417 169.598 64.2884C168.635 63.9361 167.57 63.6243 166.672 63.3255C165.774 63.0257 165.044 62.7385 164.511 62.4212C163.979 62.1039 163.643 61.7578 163.207 61.0814C162.77 60.405 162.231 59.3992 161.639 58.6517C161.047 57.9032 160.4 57.4122 159.675 57.0413C158.951 56.6707 158.15 56.4193 157.211 56.4261ZM200.396 39.1253C198.446 39.175 196.411 40.1735 195.235 41.7347C194.059 43.2969 193.742 45.4225 193.424 47.5492C187.456 44.0861 181.999 45.6665 180.757 52.4447H200.466V46.9828H208.802C208.668 46.0737 208.528 45.4339 208.144 44.5726C207.691 43.5535 206.886 42.2115 205.55 41.0921C204.215 39.9729 202.348 39.0747 200.396 39.1253Z" fill="#4795A3"/>
<path fill-rule="evenodd" clip-rule="evenodd" d="M302.528 101.576C300.027 98.9554 297.637 96.3881 296.059 94.2171C294.236 91.7077 293.499 89.7279 293.131 84.7327C293.093 84.2082 293.058 83.6502 293.027 83.0659C296.599 86.0432 298.496 88.2956 300.82 93.7213L300.831 93.7814L300.782 94.3762C300.782 95.989 302.089 97.2962 303.702 97.2962C305.314 97.2962 306.622 95.989 306.622 94.3762L306.572 93.7817L306.583 93.721C308.907 88.2956 310.804 86.0432 314.376 83.0662C314.345 83.6508 314.311 84.2085 314.272 84.733C313.904 89.7285 313.167 91.7082 311.344 94.2174C309.767 96.3881 307.376 98.9551 304.876 101.575C307.546 149.84 306.56 126.956 308.082 195.417C308.082 197.836 306.121 199.797 303.702 199.797C301.283 199.797 299.322 197.836 299.322 195.417C300.844 126.957 299.857 149.84 302.527 101.577L302.528 101.576ZM292.985 82.1786C292.77 77.2832 292.81 70.8583 293.062 66.2006C293.362 60.6757 293.96 57.6369 295.783 53.47C297.607 49.3032 300.654 44.0084 302.178 41.3611C304.156 37.9249 303.248 37.9249 305.226 41.3611C306.75 44.0087 309.798 49.3032 311.621 53.47C313.444 57.6369 314.042 60.6757 314.342 66.2006C314.594 70.8583 314.634 77.2832 314.419 82.1786C311.326 84.1466 308.899 85.9582 306.096 88.0442C303.998 63.0716 304.763 75.3227 303.702 44.2102C302.641 75.3247 303.407 63.0654 301.309 88.0442C298.506 85.9582 296.079 84.1466 292.985 82.1786H292.985Z" fill="#242B3D"/>
<path d="M18.9 328.032C19.2334 328.81 19.7389 329.677 20.3551 330.598C21.8671 332.857 24.1973 335.656 26.8629 338.637C32.1001 344.493 38.8043 351.233 43.4332 356.146L43.8551 360.421C42.564 361.728 38.4144 365.984 34.399 370.107C32.1384 372.429 29.9148 374.714 28.2564 376.419C27.4273 377.271 26.739 377.978 26.2584 378.473C26.1745 378.559 26.0969 378.639 26.026 378.712C25.7004 378.518 25.2866 378.231 24.7867 377.838C23.9611 377.189 22.987 376.325 21.9176 375.309C19.7799 373.278 17.3106 370.691 14.9605 368.136C12.6128 365.583 10.3948 363.074 8.76327 361.201C7.94781 360.265 7.27941 359.489 6.81503 358.947C6.58285 358.676 6.40184 358.464 6.27889 358.319C6.21763 358.247 6.17071 358.192 6.13925 358.155C6.12351 358.137 6.11102 358.123 6.10311 358.113C6.09917 358.109 6.09627 358.105 6.09432 358.103L6.09139 358.1L6.07675 358.082L6.06112 358.065L5.90682 357.896C2.69725 354.367 2.02954 351.627 2.06698 349.866C2.08634 348.959 2.29323 348.267 2.48495 347.815C2.58091 347.589 2.67362 347.423 2.7369 347.319C2.76853 347.268 2.79266 347.231 2.80624 347.212C2.80838 347.209 2.81051 347.206 2.8121 347.204L18.9 328.032Z" fill="#4795A3"/>
<path d="M20.8206 326.03C21.1563 326.053 21.6027 326.171 22.096 326.357C22.6046 326.55 23.0884 326.787 23.429 326.97L23.4299 326.971C24.1429 327.352 28.8147 329.776 34.3313 331.909C37.0892 332.975 40.0817 333.978 42.9104 334.613C44.3205 334.93 45.7177 335.161 47.0413 335.257C46.9846 335.304 46.9277 335.352 46.8713 335.399L46.6731 335.569C45.6718 336.442 44.9697 337.703 44.469 339.131C43.9649 340.568 43.6384 342.253 43.4377 344.055C43.1295 346.824 43.1119 349.947 43.2473 353.024C42.7186 352.477 42.0971 351.832 41.4045 351.109C39.137 348.743 36.1059 345.546 33.051 342.22C29.9939 338.891 26.9223 335.442 24.5676 332.57C23.3893 331.133 22.4019 329.855 21.6887 328.816C21.332 328.297 21.0528 327.851 20.8547 327.483C20.6739 327.148 20.5866 326.926 20.553 326.801L20.5422 326.753H20.5413L20.5208 326.637C20.4618 326.274 20.4952 326.105 20.5139 326.045C20.5498 326.035 20.6225 326.022 20.7542 326.026L20.8206 326.03Z" fill="#242B3D"/>
<path d="M64.7061 331.72C64.7166 331.804 64.7274 331.895 64.7393 331.99C64.8281 332.702 64.9555 333.72 65.1065 334.943C65.4085 337.39 65.8076 340.659 66.1983 343.947C66.589 347.236 66.9706 350.54 67.2363 353.059C67.3693 354.32 67.4731 355.379 67.5342 356.137C67.5493 356.326 67.5608 356.493 67.5703 356.638C67.073 356.732 66.4149 356.838 65.5361 356.995C63.8102 357.303 61.4538 357.775 58.9297 358.582C54.6864 359.937 49.8168 362.288 46.7149 366.544C46.6401 366.057 46.5591 365.517 46.4756 364.93C46.0966 362.269 45.6576 358.669 45.415 354.903C45.172 351.13 45.1296 347.227 45.5283 343.95C45.7277 342.312 46.034 340.86 46.4649 339.673C46.8987 338.476 47.4336 337.617 48.0449 337.085L48.2119 336.941C51.7237 333.958 55.9968 332.647 59.4649 332.093C61.2196 331.813 62.7486 331.73 63.8359 331.716C64.1703 331.712 64.4628 331.715 64.7061 331.72Z" fill="#4795A3"/>
<path d="M104.844 352.781L108.122 362.029C108.08 362.087 108.033 362.153 107.982 362.223C107.693 362.616 107.257 363.187 106.68 363.887C105.525 365.288 103.804 367.204 101.549 369.25C97.0684 373.315 90.5188 377.859 82.1476 379.936L81.9493 379.985C77.1268 381.155 70.8547 382.019 64.879 381.377C58.95 380.741 53.4367 378.639 49.8321 374.024L49.7472 373.914C48.7828 372.658 47.9494 371.208 47.2823 369.537C47.3091 369.482 47.3339 369.433 47.3517 369.396C47.3608 369.376 47.3684 369.36 47.3741 369.348C50.1956 364.09 56.0096 361.473 60.9913 360.086C61.0165 360.122 61.0439 360.161 61.0733 360.201C61.2745 360.476 61.5759 360.847 61.9933 361.259C62.8294 362.084 64.1306 363.072 66.0147 363.785C69.6894 365.178 75.394 365.459 83.8966 361.818L84.7286 361.453C90.8048 358.727 94.996 353.892 97.7257 349.44C99.3186 346.841 100.434 344.339 101.146 342.403L104.844 352.781ZM46.795 369.853C46.748 369.869 46.697 369.882 46.6427 369.892C46.6943 369.882 46.745 369.87 46.794 369.853H46.795Z" fill="#242B3D"/>
</svg>
